<svg xmlns="http://www.w3.org/2000/svg" width="15" height="15" viewBox="0 0 15 15">
    <g fill="none" fill-rule="evenodd" stroke="#4D5057">
        <path stroke-linejoin="round" d="M3.484 12.18s1.044 1.35 2.958 1.208c1.551 0 4.96-.024 4.96-.024a.863.863 0 0 0 .559-1.384.864.864 0 0 0-.517-.32h-1.31M12.2 9.978c.166.03.325.09.453.219.337.338.307 1.035-.112 1.32-.19.18-.959.105-1.097.143"/>
        <path stroke-linejoin="round" d="M12.16 8.2s.707-.004.867.13c.46.384.53 1.018.192 1.354-.153.152-.403.29-.603.304l-2.445.002"/>
        <path stroke-linejoin="round" d="M10.178 8.188l2.675.012c.308-.032.56-.233.73-.401.338-.337.221-.961-.115-1.3a.862.862 0 0 0-.61-.255l-4.584-.016s.668-2.168.497-2.71"/>
        <path stroke-linejoin="round" d="M8.798 3.718S9.09.193 6.703 1.253c.583 2.266-.94 4.922-.94 4.922"/>
        <path d="M3.506 6.764l2.395-.714M3.046 13.992l-1.56-.005a.433.433 0 0 1-.432-.435l.026-7.759c.001-.239.196-.432.435-.431l1.56.005c.24 0 .433.195.432.435l-.026 7.758c0 .24-.195.433-.435.432z"/>
    </g>
</svg>
