<?xml version="1.0" encoding="UTF-8"?>
<svg width="258px" height="87px" viewBox="0 0 258 87" version="1.1" xmlns="http://www.w3.org/2000/svg" xmlns:xlink="http://www.w3.org/1999/xlink">
    <!-- Generator: Sketch 49.1 (51147) - http://www.bohemiancoding.com/sketch -->
    <title>Search Bike</title>
    <desc>Created with Sketch.</desc>
    <defs>
        <polygon id="path-1" points="0.3672 0.6733 33.201 0.6733 33.201 33.5073 0.3672 33.5073"></polygon>
        <path d="M0.197,29.98 C0.197,46.466 13.562,59.831 30.049,59.831 C46.535,59.831 59.899,46.466 59.899,29.98 C59.899,13.494 46.535,0.129 30.049,0.129 C13.562,0.129 0.197,13.494 0.197,29.98" id="path-3"></path>
        <path d="M0.197,29.98 C0.197,46.466 13.562,59.831 30.049,59.831 C46.535,59.831 59.899,46.466 59.899,29.98 C59.899,13.494 46.535,0.129 30.049,0.129 C13.562,0.129 0.197,13.494 0.197,29.98" id="path-5"></path>
        <path d="M0.197,29.98 C0.197,46.466 13.562,59.831 30.049,59.831 C46.535,59.831 59.899,46.466 59.899,29.98 C59.899,13.494 46.535,0.129 30.049,0.129 C13.562,0.129 0.197,13.494 0.197,29.98" id="path-7"></path>
        <path d="M0.197,29.98 C0.197,46.466 13.562,59.831 30.049,59.831 C46.535,59.831 59.899,46.466 59.899,29.98 C59.899,13.494 46.535,0.129 30.049,0.129 C13.562,0.129 0.197,13.494 0.197,29.98" id="path-9"></path>
        <path d="M0.197,29.98 C0.197,46.466 13.562,59.831 30.049,59.831 C46.535,59.831 59.899,46.466 59.899,29.98 C59.899,13.494 46.535,0.129 30.049,0.129 C13.562,0.129 0.197,13.494 0.197,29.98" id="path-11"></path>
        <path d="M0.197,29.98 C0.197,46.466 13.562,59.831 30.049,59.831 C46.535,59.831 59.899,46.466 59.899,29.98 C59.899,13.494 46.535,0.129 30.049,0.129 C13.562,0.129 0.197,13.494 0.197,29.98" id="path-13"></path>
        <path d="M0.197,29.98 C0.197,46.466 13.562,59.831 30.049,59.831 C46.535,59.831 59.899,46.466 59.899,29.98 C59.899,13.494 46.535,0.129 30.049,0.129 C13.562,0.129 0.197,13.494 0.197,29.98" id="path-15"></path>
        <path d="M0.197,29.98 C0.197,46.466 13.562,59.831 30.049,59.831 C46.535,59.831 59.899,46.466 59.899,29.98 C59.899,13.494 46.535,0.129 30.049,0.129 C13.562,0.129 0.197,13.494 0.197,29.98" id="path-17"></path>
        <path d="M0.197,29.98 C0.197,46.466 13.562,59.831 30.049,59.831 C46.535,59.831 59.899,46.466 59.899,29.98 C59.899,13.494 46.535,0.129 30.049,0.129 C13.562,0.129 0.197,13.494 0.197,29.98" id="path-19"></path>
        <path d="M0.197,29.98 C0.197,46.466 13.562,59.831 30.049,59.831 C46.535,59.831 59.899,46.466 59.899,29.98 C59.899,13.494 46.535,0.129 30.049,0.129 C13.562,0.129 0.197,13.494 0.197,29.98" id="path-21"></path>
        <path d="M0.197,29.98 C0.197,46.466 13.562,59.831 30.049,59.831 C46.535,59.831 59.899,46.466 59.899,29.98 C59.899,13.494 46.535,0.129 30.049,0.129 C13.562,0.129 0.197,13.494 0.197,29.98" id="path-23"></path>
        <path d="M0.197,29.98 C0.197,46.466 13.562,59.831 30.049,59.831 C46.535,59.831 59.899,46.466 59.899,29.98 C59.899,13.494 46.535,0.129 30.049,0.129 C13.562,0.129 0.197,13.494 0.197,29.98" id="path-25"></path>
        <path d="M0.197,29.98 C0.197,46.466 13.562,59.831 30.049,59.831 C46.535,59.831 59.899,46.466 59.899,29.98 C59.899,13.494 46.535,0.129 30.049,0.129 C13.562,0.129 0.197,13.494 0.197,29.98" id="path-27"></path>
        <path d="M0.197,29.98 C0.197,46.466 13.562,59.831 30.049,59.831 C46.535,59.831 59.899,46.466 59.899,29.98 C59.899,13.494 46.535,0.129 30.049,0.129 C13.562,0.129 0.197,13.494 0.197,29.98 Z" id="path-29"></path>
        <path d="M0.197,29.98 C0.197,46.466 13.562,59.831 30.049,59.831 C46.535,59.831 59.899,46.466 59.899,29.98 C59.899,13.494 46.535,0.129 30.049,0.129 C13.562,0.129 0.197,13.494 0.197,29.98" id="path-31"></path>
        <path d="M0.197,29.98 C0.197,46.466 13.562,59.831 30.049,59.831 C46.535,59.831 59.899,46.466 59.899,29.98 C59.899,13.494 46.535,0.129 30.049,0.129 C13.562,0.129 0.197,13.494 0.197,29.98" id="path-33"></path>
        <path d="M0.197,29.98 C0.197,46.466 13.562,59.831 30.049,59.831 C46.535,59.831 59.899,46.466 59.899,29.98 C59.899,13.494 46.535,0.129 30.049,0.129 C13.562,0.129 0.197,13.494 0.197,29.98" id="path-35"></path>
        <path d="M0.197,29.98 C0.197,46.466 13.562,59.831 30.049,59.831 C46.535,59.831 59.899,46.466 59.899,29.98 C59.899,13.494 46.535,0.129 30.049,0.129 C13.562,0.129 0.197,13.494 0.197,29.98" id="path-37"></path>
        <path d="M0.197,29.98 C0.197,46.466 13.562,59.831 30.049,59.831 C46.535,59.831 59.899,46.466 59.899,29.98 C59.899,13.494 46.535,0.129 30.049,0.129 C13.562,0.129 0.197,13.494 0.197,29.98" id="path-39"></path>
        <path d="M0.197,29.98 C0.197,46.466 13.562,59.831 30.049,59.831 C46.535,59.831 59.899,46.466 59.899,29.98 C59.899,13.494 46.535,0.129 30.049,0.129 C13.562,0.129 0.197,13.494 0.197,29.98" id="path-41"></path>
        <path d="M0.197,29.98 C0.197,46.466 13.562,59.831 30.049,59.831 C46.535,59.831 59.899,46.466 59.899,29.98 C59.899,13.494 46.535,0.129 30.049,0.129 C13.562,0.129 0.197,13.494 0.197,29.98" id="path-43"></path>
        <path d="M0.197,29.98 C0.197,46.466 13.562,59.831 30.049,59.831 C46.535,59.831 59.899,46.466 59.899,29.98 C59.899,13.494 46.535,0.129 30.049,0.129 C13.562,0.129 0.197,13.494 0.197,29.98" id="path-45"></path>
        <path d="M0.197,29.98 C0.197,46.466 13.562,59.831 30.049,59.831 C46.535,59.831 59.899,46.466 59.899,29.98 C59.899,13.494 46.535,0.129 30.049,0.129 C13.562,0.129 0.197,13.494 0.197,29.98" id="path-47"></path>
        <path d="M0.197,29.98 C0.197,46.466 13.562,59.831 30.049,59.831 C46.535,59.831 59.899,46.466 59.899,29.98 C59.899,13.494 46.535,0.129 30.049,0.129 C13.562,0.129 0.197,13.494 0.197,29.98" id="path-49"></path>
        <path d="M0.197,29.98 C0.197,46.466 13.562,59.831 30.049,59.831 C46.535,59.831 59.899,46.466 59.899,29.98 C59.899,13.494 46.535,0.129 30.049,0.129 C13.562,0.129 0.197,13.494 0.197,29.98 Z" id="path-51"></path>
        <path d="M0.197,29.98 C0.197,46.466 13.562,59.831 30.049,59.831 C46.535,59.831 59.899,46.466 59.899,29.98 C59.899,13.494 46.535,0.129 30.049,0.129 C13.562,0.129 0.197,13.494 0.197,29.98 Z" id="path-53"></path>
        <path d="M0.197,29.98 C0.197,46.466 13.562,59.831 30.049,59.831 C46.535,59.831 59.899,46.466 59.899,29.98 C59.899,13.494 46.535,0.129 30.049,0.129 C13.562,0.129 0.197,13.494 0.197,29.98" id="path-55"></path>
        <path d="M0.197,29.98 C0.197,46.466 13.562,59.831 30.049,59.831 C46.535,59.831 59.899,46.466 59.899,29.98 C59.899,13.494 46.535,0.129 30.049,0.129 C13.562,0.129 0.197,13.494 0.197,29.98 Z" id="path-57"></path>
        <path d="M0.197,29.98 C0.197,46.466 13.562,59.831 30.049,59.831 C46.535,59.831 59.899,46.466 59.899,29.98 C59.899,13.494 46.535,0.129 30.049,0.129 C13.562,0.129 0.197,13.494 0.197,29.98 Z" id="path-59"></path>
        <path d="M0.197,29.98 C0.197,46.466 13.562,59.831 30.049,59.831 C46.535,59.831 59.899,46.466 59.899,29.98 C59.899,13.494 46.535,0.129 30.049,0.129 C13.562,0.129 0.197,13.494 0.197,29.98 Z" id="path-61"></path>
    </defs>
    <g id="Page-1" stroke="none" stroke-width="1" fill="none" fill-rule="evenodd">
        <g id="Artboard" transform="translate(-65.000000, -80.000000)">
            <g id="Search-Bike" transform="translate(66.000000, 79.000000)">
                <g id="Page-1" transform="translate(45.000000, 0.000000)">
                    <g id="Group-56" opacity="0.5" transform="translate(26.000000, 8.203100)">
                        <path d="M32.5347,40.0903 C32.5347,48.8813 25.4087,56.0073 16.6177,56.0073 C7.8267,56.0073 0.7007,48.8813 0.7007,40.0903 C0.7007,31.2993 7.8267,24.1733 16.6177,24.1733 C25.4087,24.1733 32.5347,31.2993 32.5347,40.0903" id="Fill-1" fill="#FD8D81"></path>
                        <path d="M16.6177,24.6733 C8.1167,24.6733 1.2007,31.5893 1.2007,40.0903 C1.2007,48.5913 8.1167,55.5073 16.6177,55.5073 C25.1187,55.5073 32.0347,48.5913 32.0347,40.0903 C32.0347,31.5893 25.1187,24.6733 16.6177,24.6733 M16.6177,56.5073 C7.5657,56.5073 0.2007,49.1423 0.2007,40.0903 C0.2007,31.0383 7.5657,23.6733 16.6177,23.6733 C25.6697,23.6733 33.0347,31.0383 33.0347,40.0903 C33.0347,49.1423 25.6697,56.5073 16.6177,56.5073" id="Fill-3" fill="#F04031"></path>
                        <path d="M25.5225,40.0903 C25.5225,45.0083 21.5355,48.9953 16.6175,48.9953 C11.6995,48.9953 7.7125,45.0083 7.7125,40.0903 C7.7125,35.1723 11.6995,31.1853 16.6175,31.1853 C21.5355,31.1853 25.5225,35.1723 25.5225,40.0903" id="Fill-5" fill="#FFFFFF"></path>
                        <path d="M16.6177,31.6855 C11.9837,31.6855 8.2127,35.4565 8.2127,40.0905 C8.2127,44.7245 11.9837,48.4955 16.6177,48.4955 C21.2517,48.4955 25.0227,44.7245 25.0227,40.0905 C25.0227,35.4565 21.2517,31.6855 16.6177,31.6855 M16.6177,49.4955 C11.4317,49.4955 7.2127,45.2765 7.2127,40.0905 C7.2127,34.9045 11.4317,30.6855 16.6177,30.6855 C21.8037,30.6855 26.0227,34.9045 26.0227,40.0905 C26.0227,45.2765 21.8037,49.4955 16.6177,49.4955" id="Fill-7" fill="#F04031"></path>
                        <path d="M111.7012,40.0903 C111.7012,48.8813 104.5752,56.0073 95.7842,56.0073 C86.9932,56.0073 79.8672,48.8813 79.8672,40.0903 C79.8672,31.2993 86.9932,24.1733 95.7842,24.1733 C104.5752,24.1733 111.7012,31.2993 111.7012,40.0903" id="Fill-9" fill="#FD8D81"></path>
                        <g id="Group-13" transform="translate(79.000000, 23.000000)">
                            <mask id="mask-2" fill="white">
                                <use xlink:href="#path-1"></use>
                            </mask>
                            <g id="Clip-12"></g>
                            <path d="M16.7842,1.6733 C8.2832,1.6733 1.3672,8.5893 1.3672,17.0903 C1.3672,25.5913 8.2832,32.5073 16.7842,32.5073 C25.2852,32.5073 32.2012,25.5913 32.2012,17.0903 C32.2012,8.5893 25.2852,1.6733 16.7842,1.6733 M16.7842,33.5073 C7.7322,33.5073 0.3672,26.1423 0.3672,17.0903 C0.3672,8.0383 7.7322,0.6733 16.7842,0.6733 C25.8362,0.6733 33.2012,8.0383 33.2012,17.0903 C33.2012,26.1423 25.8362,33.5073 16.7842,33.5073" id="Fill-11" fill="#F04031" mask="url(#mask-2)"></path>
                        </g>
                        <path d="M104.689,40.0903 C104.689,45.0083 100.702,48.9953 95.784,48.9953 C90.866,48.9953 86.879,45.0083 86.879,40.0903 C86.879,35.1723 90.866,31.1853 95.784,31.1853 C100.702,31.1853 104.689,35.1723 104.689,40.0903" id="Fill-14" fill="#FFFFFF"></path>
                        <path d="M95.7842,31.6855 C91.1502,31.6855 87.3792,35.4565 87.3792,40.0905 C87.3792,44.7245 91.1502,48.4955 95.7842,48.4955 C100.4182,48.4955 104.1892,44.7245 104.1892,40.0905 C104.1892,35.4565 100.4182,31.6855 95.7842,31.6855 M95.7842,49.4955 C90.5982,49.4955 86.3792,45.2765 86.3792,40.0905 C86.3792,34.9045 90.5982,30.6855 95.7842,30.6855 C100.9702,30.6855 105.1892,34.9045 105.1892,40.0905 C105.1892,45.2765 100.9702,49.4955 95.7842,49.4955" id="Fill-16" fill="#F04031"></path>
                        <path d="M93.3257,3.1318 C90.4767,3.1318 88.1587,5.4498 88.1587,8.2988 C88.1587,11.4188 90.9067,13.9418 94.1587,13.3938 L94.1587,3.2038 C93.8767,3.1558 93.5967,3.1318 93.3257,3.1318 M93.3257,14.4648 C89.9257,14.4648 87.1587,11.6988 87.1587,8.2988 C87.1587,4.4258 90.7607,1.3368 94.7767,2.3108 C95.0007,2.3648 95.1587,2.5658 95.1587,2.7968 L95.1587,13.8008 C95.1587,14.0318 95.0007,14.2328 94.7767,14.2868 C94.2867,14.4048 93.7987,14.4648 93.3257,14.4648" id="Fill-18" fill="#4D5057"></path>
                        <path d="M95.7842,40.9653 C95.5852,40.9653 95.3972,40.8463 95.3202,40.6503 L80.0652,2.3283 L70.2652,1.9653 C69.9902,1.9543 69.7742,1.7223 69.7842,1.4463 C69.7942,1.1713 70.0212,0.9363 70.3032,0.9653 L80.4282,1.3403 C80.6252,1.3483 80.8002,1.4713 80.8732,1.6553 L96.2482,40.2803 C96.3512,40.5373 96.2252,40.8273 95.9692,40.9293 C95.9092,40.9543 95.8462,40.9653 95.7842,40.9653" id="Fill-20" fill="#4D5057"></path>
                        <path d="M82.1597,25.0903 C82.0117,25.0903 81.8657,25.0253 81.7667,24.9003 C81.5957,24.6833 81.6327,24.3683 81.8497,24.1973 C82.1207,23.9843 88.5867,18.9573 96.3087,19.3403 C96.5847,19.3543 96.7977,19.5893 96.7837,19.8643 C96.7697,20.1403 96.5267,20.3453 96.2597,20.3403 C88.8967,19.9763 82.5327,24.9333 82.4687,24.9833 C82.3767,25.0553 82.2677,25.0903 82.1597,25.0903" id="Fill-22" fill="#4D5057"></path>
                        <path d="M95.7842,36.9653 C94.0612,36.9653 92.6592,38.3673 92.6592,40.0903 C92.6592,41.8133 94.0612,43.2153 95.7842,43.2153 C97.5072,43.2153 98.9092,41.8133 98.9092,40.0903 C98.9092,38.3673 97.5072,36.9653 95.7842,36.9653 M95.7842,44.2153 C93.5102,44.2153 91.6592,42.3643 91.6592,40.0903 C91.6592,37.8163 93.5102,35.9653 95.7842,35.9653 C98.0582,35.9653 99.9092,37.8163 99.9092,40.0903 C99.9092,42.3643 98.0582,44.2153 95.7842,44.2153" id="Fill-24" fill="#4D5057"></path>
                        <path d="M16.6177,36.9653 C14.8947,36.9653 13.4927,38.3673 13.4927,40.0903 C13.4927,41.8133 14.8947,43.2153 16.6177,43.2153 C18.3407,43.2153 19.7427,41.8133 19.7427,40.0903 C19.7427,38.3673 18.3407,36.9653 16.6177,36.9653 M16.6177,44.2153 C14.3437,44.2153 12.4927,42.3643 12.4927,40.0903 C12.4927,37.8163 14.3437,35.9653 16.6177,35.9653 C18.8917,35.9653 20.7427,37.8163 20.7427,40.0903 C20.7427,42.3643 18.8917,44.2153 16.6177,44.2153" id="Fill-26" fill="#4D5057"></path>
                        <path d="M47.7441,42.3062 C49.1831,42.3472 56.9191,42.5542 63.4861,42.4652 C69.1651,42.3872 71.3381,36.9242 71.3591,36.8692 L79.1681,19.4632 L30.0121,19.3022 L47.7441,42.3062 Z M59.9741,43.4882 C53.7011,43.4882 47.5501,43.3012 47.4771,43.2992 C47.3271,43.2942 47.1881,43.2232 47.0971,43.1042 L28.5971,19.1042 C28.4801,18.9532 28.4601,18.7482 28.5441,18.5772 C28.6281,18.4072 28.8021,18.2992 28.9931,18.2992 L28.9941,18.2992 L79.6161,18.4652 L81.1171,15.1192 L77.3611,5.6492 C77.2591,5.3932 77.3851,5.1022 77.6411,5.0002 C77.8961,4.8982 78.1891,5.0242 78.2901,5.2812 L82.1241,14.9482 C82.1741,15.0732 82.1701,15.2132 82.1151,15.3362 L72.2821,37.2532 C72.2681,37.2902 69.8471,43.3782 63.4991,43.4652 C62.3471,43.4812 61.1591,43.4882 59.9741,43.4882 Z" id="Fill-28" fill="#4D5057"></path>
                        <path d="M1.6597,21.4653 C1.5097,21.4653 1.3607,21.3983 1.2627,21.2693 C1.0947,21.0493 1.1367,20.7363 1.3557,20.5683 C6.5107,16.6273 11.5117,14.7953 16.1947,15.1333 C18.5537,15.3013 28.6997,18.1943 29.1297,18.3183 C29.3957,18.3943 29.5497,18.6713 29.4737,18.9363 C29.3967,19.2013 29.1207,19.3523 28.8557,19.2793 C28.7507,19.2493 18.3787,16.2923 16.1237,16.1303 C11.6787,15.8163 6.9167,17.5733 1.9627,21.3623 C1.8717,21.4313 1.7657,21.4653 1.6597,21.4653" id="Fill-30" fill="#4D5057"></path>
                        <path d="M73.1592,19.1318 C73.0582,19.1318 72.9562,19.1018 72.8682,19.0378 C72.6432,18.8778 72.5922,18.5648 72.7532,18.3408 C72.7792,18.3038 75.3712,14.6288 74.7502,11.1358 C74.6232,10.4198 74.2852,9.8868 73.7172,9.5068 C72.0472,8.3898 69.0462,9.0298 69.0162,9.0368 L50.1182,13.9488 C50.0772,13.9598 50.0352,13.9648 49.9922,13.9648 L28.6592,13.9648 C28.6162,13.9648 28.5732,13.9598 28.5312,13.9488 L17.0552,10.8998 L15.3782,15.4708 C15.2842,15.7308 14.9972,15.8658 14.7372,15.7678 C14.4772,15.6738 14.3452,15.3858 14.4402,15.1268 L16.2732,10.1268 C16.3612,9.8838 16.6182,9.7508 16.8712,9.8158 L28.7242,12.9648 L49.9292,12.9648 L68.7832,8.0648 C68.9412,8.0298 72.2452,7.3228 74.2712,8.6748 C75.0672,9.2068 75.5592,9.9758 75.7352,10.9618 C76.4302,14.8738 73.6822,18.7598 73.5652,18.9238 C73.4682,19.0598 73.3142,19.1318 73.1592,19.1318" id="Fill-32" fill="#4D5057"></path>
                        <path d="M75.2427,11.0488 C75.0447,11.0488 74.8577,10.9308 74.7797,10.7368 C74.6757,10.4808 74.7997,10.1888 75.0557,10.0858 L78.9717,8.5018 C79.2277,8.3988 79.5187,8.5218 79.6227,8.7778 C79.7257,9.0338 79.6027,9.3248 79.3467,9.4288 L75.4297,11.0118 C75.3687,11.0368 75.3047,11.0488 75.2427,11.0488" id="Fill-34" fill="#4D5057"></path>
                        <path d="M64.4097,31.7988 C64.3917,31.7988 64.3737,31.7978 64.3557,31.7958 C64.0807,31.7658 63.8827,31.5198 63.9117,31.2448 L65.2457,18.9118 C65.2757,18.6368 65.5227,18.4338 65.7967,18.4678 C66.0707,18.4978 66.2697,18.7448 66.2397,19.0188 L64.9067,31.3528 C64.8787,31.6088 64.6617,31.7988 64.4097,31.7988" id="Fill-36" fill="#4D5057"></path>
                        <path d="M47.4927,43.2988 C47.2167,43.2988 46.9927,43.0748 46.9927,42.7988 L46.9927,36.1318 C46.9857,36.1088 46.7357,34.0148 48.5557,32.1948 C50.3707,30.3798 52.8577,30.6248 52.9627,30.6348 C53.4157,30.6248 65.4927,30.4708 67.4517,30.9818 L67.9807,31.1148 C69.7277,31.5518 71.5347,32.0028 73.0767,34.3578 C73.2287,34.5888 73.1637,34.8988 72.9327,35.0498 C72.7007,35.2018 72.3917,35.1358 72.2417,34.9058 C70.9117,32.8788 69.4417,32.5108 67.7387,32.0858 L67.1997,31.9488 C65.6807,31.5528 56.3737,31.5848 52.9157,31.6318 C52.8347,31.6278 50.7317,31.4318 49.2627,32.9028 C47.8037,34.3618 47.9807,36.0008 47.9887,36.0698 L47.9927,42.7988 C47.9927,43.0748 47.7687,43.2988 47.4927,43.2988" id="Fill-38" fill="#4D5057"></path>
                        <path d="M16.3262,40.4653 C16.1612,40.4653 16.0012,40.3843 15.9052,40.2363 C15.7562,40.0043 15.8232,39.6943 16.0552,39.5453 L35.2222,27.2113 C35.4532,27.0633 35.7632,27.1293 35.9132,27.3613 C36.0622,27.5933 35.9952,27.9023 35.7632,28.0523 L16.5962,40.3853 C16.5132,40.4393 16.4192,40.4653 16.3262,40.4653" id="Fill-40" fill="#4D5057"></path>
                        <path d="M49.9927,18.9653 C49.7167,18.9653 49.4927,18.7413 49.4927,18.4653 L49.4927,13.4653 C49.4927,13.1893 49.7167,12.9653 49.9927,12.9653 C50.2687,12.9653 50.4927,13.1893 50.4927,13.4653 L50.4927,18.4653 C50.4927,18.7413 50.2687,18.9653 49.9927,18.9653" id="Fill-42" fill="#000000"></path>
                        <path d="M39.9087,33.2153 C39.8067,33.2153 39.7037,33.1843 39.6157,33.1203 C39.3917,32.9573 39.3427,32.6453 39.5047,32.4213 L49.4417,18.7343 C49.6047,18.5103 49.9157,18.4603 50.1407,18.6233 C50.3637,18.7853 50.4137,19.0983 50.2517,19.3213 L40.3137,33.0093 C40.2157,33.1443 40.0637,33.2153 39.9087,33.2153" id="Fill-44" fill="#4D5057"></path>
                        <path d="M48.9092,33.0488 C48.7722,33.0488 48.6362,32.9928 48.5372,32.8828 L43.6272,27.4158 C43.4422,27.2108 43.4592,26.8948 43.6652,26.7098 C43.8692,26.5268 44.1862,26.5428 44.3712,26.7478 L49.2812,32.2148 C49.4662,32.4198 49.4492,32.7368 49.2432,32.9208 C49.1482,33.0068 49.0282,33.0488 48.9092,33.0488" id="Fill-46" fill="#4D5057"></path>
                        <path d="M57.2837,31.2778 C57.0367,31.2778 56.8227,31.0948 56.7887,30.8438 L55.2257,19.1568 C55.1897,18.8828 55.3817,18.6318 55.6557,18.5948 C55.9317,18.5598 56.1807,18.7508 56.2177,19.0238 L57.7797,30.7118 C57.8167,30.9858 57.6237,31.2368 57.3507,31.2738 C57.3277,31.2768 57.3057,31.2778 57.2837,31.2778" id="Fill-48" fill="#4D5057"></path>
                        <path d="M23.3467,44.9541 L28.4917,46.2231 L28.4917,39.6291 C27.4067,39.9861 25.0467,40.8321 23.3467,41.4521 L23.3467,44.9541 Z M28.9917,47.3611 C28.9517,47.3611 28.9117,47.3561 28.8717,47.3471 L22.7267,45.8311 C22.5037,45.7761 22.3467,45.5761 22.3467,45.3461 L22.3467,41.1021 C22.3467,40.8921 22.4777,40.7051 22.6747,40.6331 C29.1687,38.2581 29.1717,38.2561 29.4347,38.7211 C29.4907,38.8201 29.5087,38.9331 29.4917,39.0421 L29.4917,46.8611 C29.4917,47.0151 29.4207,47.1601 29.2997,47.2551 C29.2107,47.3251 29.1027,47.3611 28.9917,47.3611 Z" id="Fill-50" fill="#4D5057"></path>
                        <path d="M73.1592,18.6318 C73.1592,18.6318 75.9092,14.7988 75.2422,11.0488 C74.5762,7.2988 68.9092,8.5488 68.9092,8.5488 L49.9922,13.4648 L50.0342,18.8398 L73.0342,18.8398 L73.1592,18.6318 Z" id="Fill-52" fill="#FD8D81"></path>
                        <path d="M50.5303,18.3403 L72.7533,18.3403 C72.7913,18.2863 75.3693,14.6203 74.7503,11.1363 C74.6233,10.4203 74.2853,9.8873 73.7173,9.5073 C72.0473,8.3893 69.0463,9.0303 69.0163,9.0373 L50.4953,13.8513 L50.5303,18.3403 Z M73.0343,19.3403 L50.0343,19.3403 C49.7593,19.3403 49.5363,19.1183 49.5343,18.8443 L49.4923,13.4693 C49.4903,13.2403 49.6453,13.0393 49.8663,12.9813 L68.7833,8.0653 C68.9413,8.0303 72.2453,7.3223 74.2713,8.6743 C75.0673,9.2063 75.5593,9.9753 75.7353,10.9613 C76.4143,14.7823 73.8093,18.5773 73.5783,18.9053 L73.4633,19.0973 C73.3723,19.2483 73.2103,19.3403 73.0343,19.3403 Z" id="Fill-54" fill="#F04031"></path>
                    </g>
                    <g id="Group-147" transform="translate(50.000000, 3.203100)">
                        <g id="Group-59">
                            <mask id="mask-4" fill="white">
                                <use xlink:href="#path-3"></use>
                            </mask>
                            <g id="Clip-58"></g>
                            <path d="M8.4512,45.1738 C8.4512,53.9648 1.3252,61.0908 -7.4658,61.0908 C-16.2568,61.0908 -23.3828,53.9648 -23.3828,45.1738 C-23.3828,36.3828 -16.2568,29.2568 -7.4658,29.2568 C1.3252,29.2568 8.4512,36.3828 8.4512,45.1738" id="Fill-57" fill="#FD8D81" mask="url(#mask-4)"></path>
                        </g>
                        <g id="Group-62">
                            <mask id="mask-6" fill="white">
                                <use xlink:href="#path-5"></use>
                            </mask>
                            <g id="Clip-61"></g>
                            <path d="M-7.4658,29.7568 C-15.9668,29.7568 -22.8828,36.6728 -22.8828,45.1738 C-22.8828,53.6748 -15.9668,60.5908 -7.4658,60.5908 C1.0352,60.5908 7.9512,53.6748 7.9512,45.1738 C7.9512,36.6728 1.0352,29.7568 -7.4658,29.7568 M-7.4658,61.5908 C-16.5178,61.5908 -23.8828,54.2258 -23.8828,45.1738 C-23.8828,36.1218 -16.5178,28.7568 -7.4658,28.7568 C1.5862,28.7568 8.9512,36.1218 8.9512,45.1738 C8.9512,54.2258 1.5862,61.5908 -7.4658,61.5908" id="Fill-60" fill="#F04031" mask="url(#mask-6)"></path>
                        </g>
                        <g id="Group-65">
                            <mask id="mask-8" fill="white">
                                <use xlink:href="#path-7"></use>
                            </mask>
                            <g id="Clip-64"></g>
                            <path d="M1.439,45.1738 C1.439,50.0918 -2.548,54.0788 -7.466,54.0788 C-12.384,54.0788 -16.371,50.0918 -16.371,45.1738 C-16.371,40.2558 -12.384,36.2688 -7.466,36.2688 C-2.548,36.2688 1.439,40.2558 1.439,45.1738" id="Fill-63" fill="#FFFFFF" mask="url(#mask-8)"></path>
                        </g>
                        <g id="Group-68">
                            <mask id="mask-10" fill="white">
                                <use xlink:href="#path-9"></use>
                            </mask>
                            <g id="Clip-67"></g>
                            <path d="M-7.4658,36.769 C-12.0998,36.769 -15.8708,40.54 -15.8708,45.174 C-15.8708,49.808 -12.0998,53.579 -7.4658,53.579 C-2.8318,53.579 0.9392,49.808 0.9392,45.174 C0.9392,40.54 -2.8318,36.769 -7.4658,36.769 M-7.4658,54.579 C-12.6518,54.579 -16.8708,50.36 -16.8708,45.174 C-16.8708,39.988 -12.6518,35.769 -7.4658,35.769 C-2.2798,35.769 1.9392,39.988 1.9392,45.174 C1.9392,50.36 -2.2798,54.579 -7.4658,54.579" id="Fill-66" fill="#F04031" mask="url(#mask-10)"></path>
                        </g>
                        <g id="Group-71">
                            <mask id="mask-12" fill="white">
                                <use xlink:href="#path-11"></use>
                            </mask>
                            <g id="Clip-70"></g>
                            <path d="M87.6177,45.1738 C87.6177,53.9648 80.4917,61.0908 71.7007,61.0908 C62.9097,61.0908 55.7837,53.9648 55.7837,45.1738 C55.7837,36.3828 62.9097,29.2568 71.7007,29.2568 C80.4917,29.2568 87.6177,36.3828 87.6177,45.1738" id="Fill-69" fill="#FD8D81" mask="url(#mask-12)"></path>
                        </g>
                        <g id="Group-74">
                            <mask id="mask-14" fill="white">
                                <use xlink:href="#path-13"></use>
                            </mask>
                            <g id="Clip-73"></g>
                            <path d="M71.7007,29.7568 C63.1997,29.7568 56.2837,36.6728 56.2837,45.1738 C56.2837,53.6748 63.1997,60.5908 71.7007,60.5908 C80.2017,60.5908 87.1177,53.6748 87.1177,45.1738 C87.1177,36.6728 80.2017,29.7568 71.7007,29.7568 M71.7007,61.5908 C62.6487,61.5908 55.2837,54.2258 55.2837,45.1738 C55.2837,36.1218 62.6487,28.7568 71.7007,28.7568 C80.7527,28.7568 88.1177,36.1218 88.1177,45.1738 C88.1177,54.2258 80.7527,61.5908 71.7007,61.5908" id="Fill-72" fill="#F04031" mask="url(#mask-14)"></path>
                        </g>
                        <g id="Group-77">
                            <mask id="mask-16" fill="white">
                                <use xlink:href="#path-15"></use>
                            </mask>
                            <g id="Clip-76"></g>
                            <path d="M80.6055,45.1738 C80.6055,50.0918 76.6185,54.0788 71.7005,54.0788 C66.7825,54.0788 62.7955,50.0918 62.7955,45.1738 C62.7955,40.2558 66.7825,36.2688 71.7005,36.2688 C76.6185,36.2688 80.6055,40.2558 80.6055,45.1738" id="Fill-75" fill="#FFFFFF" mask="url(#mask-16)"></path>
                        </g>
                        <g id="Group-80">
                            <mask id="mask-18" fill="white">
                                <use xlink:href="#path-17"></use>
                            </mask>
                            <g id="Clip-79"></g>
                            <path d="M71.7007,36.769 C67.0667,36.769 63.2957,40.54 63.2957,45.174 C63.2957,49.808 67.0667,53.579 71.7007,53.579 C76.3347,53.579 80.1057,49.808 80.1057,45.174 C80.1057,40.54 76.3347,36.769 71.7007,36.769 M71.7007,54.579 C66.5147,54.579 62.2957,50.36 62.2957,45.174 C62.2957,39.988 66.5147,35.769 71.7007,35.769 C76.8867,35.769 81.1057,39.988 81.1057,45.174 C81.1057,50.36 76.8867,54.579 71.7007,54.579" id="Fill-78" fill="#F04031" mask="url(#mask-18)"></path>
                        </g>
                        <g id="Group-83">
                            <mask id="mask-20" fill="white">
                                <use xlink:href="#path-19"></use>
                            </mask>
                            <g id="Clip-82"></g>
                            <path d="M69.2427,8.2153 C66.3937,8.2153 64.0757,10.5333 64.0757,13.3823 C64.0757,16.5023 66.8277,19.0273 70.0757,18.4773 L70.0757,8.2873 C69.7937,8.2393 69.5147,8.2153 69.2427,8.2153 M69.2427,19.5483 C65.8427,19.5483 63.0757,16.7823 63.0757,13.3823 C63.0757,9.5073 66.6927,6.4233 70.6937,7.3933 C70.9177,7.4473 71.0757,7.6483 71.0757,7.8793 L71.0757,18.8843 C71.0757,19.1153 70.9177,19.3163 70.6937,19.3703 C70.2027,19.4883 69.7147,19.5483 69.2427,19.5483" id="Fill-81" fill="#4D5057" mask="url(#mask-20)"></path>
                        </g>
                        <g id="Group-86">
                            <mask id="mask-22" fill="white">
                                <use xlink:href="#path-21"></use>
                            </mask>
                            <g id="Clip-85"></g>
                            <path d="M71.7007,46.0488 C71.5017,46.0488 71.3137,45.9298 71.2367,45.7338 L55.9817,7.4118 L46.1817,7.0488 C45.9067,7.0378 45.6907,6.8058 45.7007,6.5298 C45.7107,6.2548 45.9367,6.0198 46.2197,6.0488 L56.3447,6.4238 C56.5417,6.4318 56.7167,6.5548 56.7897,6.7388 L72.1647,45.3638 C72.2677,45.6208 72.1417,45.9108 71.8857,46.0128 C71.8257,46.0378 71.7627,46.0488 71.7007,46.0488" id="Fill-84" fill="#4D5057" mask="url(#mask-22)"></path>
                        </g>
                        <g id="Group-89">
                            <mask id="mask-24" fill="white">
                                <use xlink:href="#path-23"></use>
                            </mask>
                            <g id="Clip-88"></g>
                            <path d="M58.0762,30.1738 C57.9282,30.1738 57.7822,30.1088 57.6832,29.9838 C57.5122,29.7668 57.5492,29.4518 57.7662,29.2808 C58.0372,29.0678 64.5072,24.0508 72.2252,24.4238 C72.5012,24.4378 72.7142,24.6728 72.7002,24.9478 C72.6862,25.2238 72.4462,25.4418 72.1762,25.4238 C64.8132,25.0598 58.4492,30.0158 58.3852,30.0668 C58.2932,30.1388 58.1842,30.1738 58.0762,30.1738" id="Fill-87" fill="#4D5057" mask="url(#mask-24)"></path>
                        </g>
                        <g id="Group-92">
                            <mask id="mask-26" fill="white">
                                <use xlink:href="#path-25"></use>
                            </mask>
                            <g id="Clip-91"></g>
                            <path d="M71.7007,42.0488 C69.9777,42.0488 68.5757,43.4508 68.5757,45.1738 C68.5757,46.8968 69.9777,48.2988 71.7007,48.2988 C73.4237,48.2988 74.8257,46.8968 74.8257,45.1738 C74.8257,43.4508 73.4237,42.0488 71.7007,42.0488 M71.7007,49.2988 C69.4267,49.2988 67.5757,47.4478 67.5757,45.1738 C67.5757,42.8998 69.4267,41.0488 71.7007,41.0488 C73.9747,41.0488 75.8257,42.8998 75.8257,45.1738 C75.8257,47.4478 73.9747,49.2988 71.7007,49.2988" id="Fill-90" fill="#4D5057" mask="url(#mask-26)"></path>
                        </g>
                        <g id="Group-95">
                            <mask id="mask-28" fill="white">
                                <use xlink:href="#path-27"></use>
                            </mask>
                            <g id="Clip-94"></g>
                            <path d="M-7.4658,42.0488 C-9.1888,42.0488 -10.5908,43.4508 -10.5908,45.1738 C-10.5908,46.8968 -9.1888,48.2988 -7.4658,48.2988 C-5.7428,48.2988 -4.3408,46.8968 -4.3408,45.1738 C-4.3408,43.4508 -5.7428,42.0488 -7.4658,42.0488 M-7.4658,49.2988 C-9.7398,49.2988 -11.5908,47.4478 -11.5908,45.1738 C-11.5908,42.8998 -9.7398,41.0488 -7.4658,41.0488 C-5.1918,41.0488 -3.3408,42.8998 -3.3408,45.1738 C-3.3408,47.4478 -5.1918,49.2988 -7.4658,49.2988" id="Fill-93" fill="#4D5057" mask="url(#mask-28)"></path>
                        </g>
                        <g id="Group-98">
                            <mask id="mask-30" fill="white">
                                <use xlink:href="#path-29"></use>
                            </mask>
                            <g id="Clip-97"></g>
                            <path d="M23.6606,47.3892 C25.0996,47.4302 32.8346,47.6382 39.4026,47.5492 C45.0816,47.4712 47.2546,42.0072 47.2766,41.9522 L55.0846,24.5472 L5.9286,24.3852 L23.6606,47.3892 Z M35.9066,48.5712 C29.6276,48.5712 23.4666,48.3842 23.3936,48.3822 C23.2436,48.3772 23.1046,48.3062 23.0136,48.1872 L4.5136,24.1872 C4.3966,24.0362 4.3766,23.8312 4.4606,23.6602 C4.5446,23.4902 4.7186,23.3822 4.9096,23.3822 L4.9106,23.3822 L55.5326,23.5482 L57.0336,20.2032 L53.2776,10.7332 C53.1766,10.4762 53.3016,10.1862 53.5586,10.0842 C53.8136,9.9832 54.1056,10.1072 54.2076,10.3652 L58.0406,20.0312 C58.0906,20.1572 58.0866,20.2972 58.0316,20.4202 L48.1986,42.3362 C48.1856,42.3732 45.7646,48.4612 39.4156,48.5492 C38.2686,48.5642 37.0846,48.5712 35.9066,48.5712 Z" id="Fill-96" fill="#4D5057" mask="url(#mask-30)"></path>
                        </g>
                        <g id="Group-101">
                            <mask id="mask-32" fill="white">
                                <use xlink:href="#path-31"></use>
                            </mask>
                            <g id="Clip-100"></g>
                            <path d="M-22.4238,26.5488 C-22.5738,26.5488 -22.7228,26.4818 -22.8208,26.3528 C-22.9888,26.1328 -22.9468,25.8198 -22.7278,25.6518 C-17.5738,21.7098 -12.5798,19.8758 -7.8888,20.2168 C-5.5308,20.3848 4.6162,23.2778 5.0462,23.4008 C5.3122,23.4768 5.4662,23.7538 5.3902,24.0188 C5.3142,24.2838 5.0352,24.4348 4.7722,24.3628 C4.6672,24.3328 -5.7048,21.3748 -7.9598,21.2138 C-12.4048,20.8988 -17.1668,22.6578 -22.1208,26.4458 C-22.2118,26.5148 -22.3178,26.5488 -22.4238,26.5488" id="Fill-99" fill="#4D5057" mask="url(#mask-32)"></path>
                        </g>
                        <g id="Group-104">
                            <mask id="mask-34" fill="white">
                                <use xlink:href="#path-33"></use>
                            </mask>
                            <g id="Clip-103"></g>
                            <path d="M49.0757,24.2153 C48.9747,24.2153 48.8727,24.1853 48.7847,24.1213 C48.5597,23.9613 48.5087,23.6493 48.6697,23.4243 C48.6957,23.3873 51.2877,19.7123 50.6667,16.2193 C50.5397,15.5023 50.2007,14.9693 49.6327,14.5893 C47.9567,13.4693 44.9637,14.1143 44.9337,14.1203 L26.0347,19.0323 C25.9937,19.0433 25.9517,19.0483 25.9087,19.0483 L4.5757,19.0483 C4.5327,19.0483 4.4897,19.0433 4.4477,19.0323 L-7.0283,15.9823 L-8.7053,20.5543 C-8.7993,20.8133 -9.0853,20.9473 -9.3463,20.8513 C-9.6063,20.7563 -9.7383,20.4683 -9.6433,20.2093 L-7.8103,15.2093 C-7.7213,14.9673 -7.4643,14.8333 -7.2123,14.8983 L4.6407,18.0483 L25.8457,18.0483 L44.6997,13.1483 C44.8577,13.1133 48.1617,12.4053 50.1877,13.7573 C50.9837,14.2893 51.4757,15.0583 51.6517,16.0443 C52.3467,19.9573 49.5987,23.8433 49.4817,24.0073 C49.3847,24.1433 49.2307,24.2153 49.0757,24.2153" id="Fill-102" fill="#4D5057" mask="url(#mask-34)"></path>
                        </g>
                        <g id="Group-107">
                            <mask id="mask-36" fill="white">
                                <use xlink:href="#path-35"></use>
                            </mask>
                            <g id="Clip-106"></g>
                            <path d="M51.1592,16.1318 C50.9612,16.1318 50.7742,16.0138 50.6962,15.8198 C50.5922,15.5628 50.7162,15.2718 50.9722,15.1688 L54.8882,13.5858 C55.1442,13.4818 55.4362,13.6058 55.5392,13.8608 C55.6422,14.1178 55.5192,14.4088 55.2632,14.5118 L51.3462,16.0948 C51.2852,16.1198 51.2212,16.1318 51.1592,16.1318" id="Fill-105" fill="#4D5057" mask="url(#mask-36)"></path>
                        </g>
                        <g id="Group-110">
                            <mask id="mask-38" fill="white">
                                <use xlink:href="#path-37"></use>
                            </mask>
                            <g id="Clip-109"></g>
                            <path d="M40.3262,36.8818 C40.3082,36.8818 40.2902,36.8808 40.2722,36.8788 C39.9972,36.8488 39.7992,36.6028 39.8282,36.3278 L41.1622,23.9948 C41.1912,23.7198 41.4432,23.5218 41.7132,23.5518 C41.9872,23.5818 42.1862,23.8278 42.1562,24.1028 L40.8232,36.4358 C40.7952,36.6918 40.5782,36.8818 40.3262,36.8818" id="Fill-108" fill="#4D5057" mask="url(#mask-38)"></path>
                        </g>
                        <g id="Group-113">
                            <mask id="mask-40" fill="white">
                                <use xlink:href="#path-39"></use>
                            </mask>
                            <g id="Clip-112"></g>
                            <path d="M23.4092,48.3818 C23.1332,48.3818 22.9092,48.1578 22.9092,47.8818 L22.9092,41.2148 C22.9022,41.1918 22.6522,39.0988 24.4722,37.2778 C26.2882,35.4638 28.7732,35.7068 28.8792,35.7178 C29.3332,35.7088 41.4082,35.5538 43.3682,36.0648 L43.8982,36.1988 C45.6452,36.6348 47.4512,37.0868 48.9942,39.4418 C49.1452,39.6728 49.0802,39.9828 48.8492,40.1338 C48.6182,40.2848 48.3092,40.2198 48.1572,39.9888 C46.8292,37.9618 45.3582,37.5948 43.6552,37.1698 L43.1172,37.0328 C41.5972,36.6358 32.2902,36.6668 28.8322,36.7148 C28.7512,36.7108 26.6482,36.5168 25.1792,37.9858 C23.7202,39.4448 23.8972,41.0838 23.9052,41.1528 L23.9092,47.8818 C23.9092,48.1578 23.6852,48.3818 23.4092,48.3818" id="Fill-111" fill="#4D5057" mask="url(#mask-40)"></path>
                        </g>
                        <g id="Group-116">
                            <mask id="mask-42" fill="white">
                                <use xlink:href="#path-41"></use>
                            </mask>
                            <g id="Clip-115"></g>
                            <path d="M-7.7568,45.5488 C-7.9218,45.5488 -8.0818,45.4678 -8.1778,45.3198 C-8.3268,45.0878 -8.2598,44.7778 -8.0278,44.6288 L11.1392,32.2948 C11.3712,32.1468 11.6802,32.2138 11.8292,32.4448 C11.9792,32.6768 11.9122,32.9858 11.6802,33.1358 L-7.4868,45.4688 C-7.5698,45.5228 -7.6638,45.5488 -7.7568,45.5488" id="Fill-114" fill="#4D5057" mask="url(#mask-42)"></path>
                        </g>
                        <g id="Group-119">
                            <mask id="mask-44" fill="white">
                                <use xlink:href="#path-43"></use>
                            </mask>
                            <g id="Clip-118"></g>
                            <path d="M25.9092,24.0488 C25.6332,24.0488 25.4092,23.8248 25.4092,23.5488 L25.4092,18.5488 C25.4092,18.2728 25.6332,18.0488 25.9092,18.0488 C26.1852,18.0488 26.4092,18.2728 26.4092,18.5488 L26.4092,23.5488 C26.4092,23.8248 26.1852,24.0488 25.9092,24.0488" id="Fill-117" fill="#000000" mask="url(#mask-44)"></path>
                        </g>
                        <g id="Group-122">
                            <mask id="mask-46" fill="white">
                                <use xlink:href="#path-45"></use>
                            </mask>
                            <g id="Clip-121"></g>
                            <path d="M15.8252,38.2988 C15.7232,38.2988 15.6202,38.2678 15.5322,38.2038 C15.3082,38.0408 15.2592,37.7288 15.4212,37.5048 L25.3582,23.8178 C25.5212,23.5938 25.8322,23.5428 26.0572,23.7068 C26.2802,23.8688 26.3302,24.1818 26.1682,24.4048 L16.2302,38.0928 C16.1322,38.2278 15.9802,38.2988 15.8252,38.2988" id="Fill-120" fill="#4D5057" mask="url(#mask-46)"></path>
                        </g>
                        <g id="Group-125">
                            <mask id="mask-48" fill="white">
                                <use xlink:href="#path-47"></use>
                            </mask>
                            <g id="Clip-124"></g>
                            <path d="M24.8257,38.1318 C24.6887,38.1318 24.5527,38.0758 24.4537,37.9658 L19.5437,32.4998 C19.3597,32.2938 19.3767,31.9778 19.5817,31.7938 C19.7857,31.6088 20.1027,31.6258 20.2877,31.8318 L25.1977,37.2978 C25.3827,37.5028 25.3657,37.8198 25.1597,38.0038 C25.0647,38.0898 24.9447,38.1318 24.8257,38.1318" id="Fill-123" fill="#4D5057" mask="url(#mask-48)"></path>
                        </g>
                        <g id="Group-128">
                            <mask id="mask-50" fill="white">
                                <use xlink:href="#path-49"></use>
                            </mask>
                            <g id="Clip-127"></g>
                            <path d="M33.2002,36.3613 C32.9532,36.3613 32.7392,36.1783 32.7052,35.9273 L31.1422,24.2403 C31.1062,23.9663 31.2982,23.7153 31.5722,23.6783 C31.8482,23.6443 32.0972,23.8343 32.1342,24.1073 L33.6962,35.7953 C33.7332,36.0693 33.5402,36.3203 33.2672,36.3573 C33.2442,36.3603 33.2222,36.3613 33.2002,36.3613" id="Fill-126" fill="#4D5057" mask="url(#mask-50)"></path>
                        </g>
                        <g id="Group-131">
                            <mask id="mask-52" fill="white">
                                <use xlink:href="#path-51"></use>
                            </mask>
                            <g id="Clip-130"></g>
                            <polygon id="Fill-129" fill="#FFFFFF" mask="url(#mask-52)" points="43.6035 45.8237 43.6035 50.1177 4.9095 51.9657 4.9095 44.0487"></polygon>
                        </g>
                        <g id="Group-134">
                            <mask id="mask-54" fill="white">
                                <use xlink:href="#path-53"></use>
                            </mask>
                            <g id="Clip-133"></g>
                            <path d="M5.4092,44.5723 L5.4092,51.4413 L43.1032,49.6413 L43.1032,46.3013 L5.4092,44.5723 Z M4.9092,52.4653 C4.7812,52.4653 4.6572,52.4163 4.5642,52.3273 C4.4652,52.2333 4.4092,52.1023 4.4092,51.9653 L4.4092,44.0493 C4.4092,43.9123 4.4652,43.7813 4.5642,43.6873 C4.6632,43.5933 4.7922,43.5363 4.9322,43.5493 L43.6262,45.3243 C43.8932,45.3363 44.1032,45.5563 44.1032,45.8233 L44.1032,50.1183 C44.1032,50.3853 43.8942,50.6053 43.6272,50.6173 L4.9332,52.4653 C4.9252,52.4653 4.9172,52.4653 4.9092,52.4653 Z" id="Fill-132" fill="#4D5057" mask="url(#mask-54)"></path>
                        </g>
                        <g id="Group-137">
                            <mask id="mask-56" fill="white">
                                <use xlink:href="#path-55"></use>
                            </mask>
                            <g id="Clip-136"></g>
                            <path d="M4.9082,44.064 L4.9082,51.944 L-1.2368,50.429 L-1.2368,46.186 C-1.2368,46.186 5.1872,43.837 4.9082,44.064" id="Fill-135" fill="#4D5057" mask="url(#mask-56)"></path>
                        </g>
                        <g id="Group-140">
                            <mask id="mask-58" fill="white">
                                <use xlink:href="#path-57"></use>
                            </mask>
                            <g id="Clip-139"></g>
                            <path d="M-0.7368,50.0376 L4.4082,51.3066 L4.4082,44.7116 C3.3232,45.0696 0.9632,45.9156 -0.7368,46.5356 L-0.7368,50.0376 Z M4.9082,52.4446 C4.8682,52.4446 4.8282,52.4396 4.7882,52.4296 L-1.3568,50.9146 C-1.5798,50.8596 -1.7368,50.6596 -1.7368,50.4296 L-1.7368,46.1856 C-1.7368,45.9756 -1.6058,45.7876 -1.4088,45.7156 C5.0922,43.3396 5.0872,43.3416 5.3512,43.8046 C5.4082,43.9036 5.4252,44.0166 5.4082,44.1256 L5.4082,51.9446 C5.4082,52.0986 5.3372,52.2436 5.2162,52.3376 C5.1272,52.4076 5.0192,52.4446 4.9082,52.4446 Z" id="Fill-138" fill="#4D5057" mask="url(#mask-58)"></path>
                        </g>
                        <g id="Group-143">
                            <mask id="mask-60" fill="white">
                                <use xlink:href="#path-59"></use>
                            </mask>
                            <g id="Clip-142"></g>
                            <path d="M49.0757,23.7153 C49.0757,23.7153 51.8257,19.8823 51.1587,16.1323 C50.4927,12.3823 44.8257,13.6323 44.8257,13.6323 L25.9087,18.5483 L25.9507,23.9233 L48.9507,23.9233 L49.0757,23.7153 Z" id="Fill-141" fill="#FD8D81" mask="url(#mask-60)"></path>
                        </g>
                        <g id="Group-146">
                            <mask id="mask-62" fill="white">
                                <use xlink:href="#path-61"></use>
                            </mask>
                            <g id="Clip-145"></g>
                            <path d="M26.4468,23.4238 L48.6698,23.4238 C48.7088,23.3678 51.2858,19.7028 50.6668,16.2188 C50.5398,15.5028 50.2008,14.9688 49.6328,14.5898 C47.9568,13.4688 44.9638,14.1138 44.9338,14.1198 L26.4118,18.9348 L26.4468,23.4238 Z M48.9508,24.4238 L25.9508,24.4238 C25.6758,24.4238 25.4528,24.2018 25.4508,23.9278 L25.4088,18.5528 C25.4068,18.3238 25.5618,18.1228 25.7828,18.0648 L44.6998,13.1478 C44.8578,13.1128 48.1618,12.4058 50.1878,13.7578 C50.9838,14.2898 51.4758,15.0588 51.6518,16.0448 C52.3308,19.8648 49.7268,23.6608 49.4948,23.9888 L49.3798,24.1808 C49.2888,24.3318 49.1268,24.4238 48.9508,24.4238 Z" id="Fill-144" fill="#F04031" mask="url(#mask-62)"></path>
                        </g>
                    </g>
                    <g id="Group-161" transform="translate(0.000000, 0.203100)">
                        <path d="M121.8253,84.475 L100.7523,63.401 C100.0913,62.741 99.7263,61.862 99.7263,60.927 C99.7263,59.992 100.0913,59.113 100.7523,58.452 C101.4123,57.791 102.2913,57.427 103.2263,57.427 C104.1613,57.427 105.0403,57.791 105.7013,58.452 L126.7753,79.525 C128.1393,80.89 128.1393,83.11 126.7753,84.475 C126.1143,85.136 125.2363,85.5 124.3003,85.5 C123.3653,85.5 122.4873,85.136 121.8253,84.475 Z" id="Fill-150" fill="#F45944"></path>
                        <path d="M103.2261,55.9268 C101.8901,55.9268 100.6341,56.4478 99.6901,57.3928 C98.7471,58.3348 98.2261,59.5908 98.2261,60.9268 C98.2261,62.2628 98.7471,63.5188 99.6921,64.4628 L120.7651,85.5348 C121.7091,86.4798 122.9651,86.9998 124.3001,86.9998 C125.6371,86.9998 126.8931,86.4798 127.8371,85.5338 C128.7801,84.5908 129.3001,83.3348 129.3001,81.9998 C129.3001,80.6648 128.7801,79.4088 127.8351,78.4648 L106.7621,57.3908 C105.8171,56.4468 104.5611,55.9268 103.2261,55.9268 M103.2261,58.9268 C103.7381,58.9268 104.2501,59.1218 104.6411,59.5128 L125.7141,80.5858 C126.4961,81.3668 126.4961,82.6328 125.7141,83.4138 C125.3241,83.8048 124.8121,83.9998 124.3001,83.9998 C123.7881,83.9998 123.2771,83.8048 122.8861,83.4138 L101.8121,62.3408 C101.0311,61.5598 101.0311,60.2938 101.8121,59.5128 C102.2031,59.1218 102.7141,58.9268 103.2261,58.9268" id="Fill-152" fill="#FFFFFF"></path>
                        <path d="M78.3032,9.2969 C63.7732,9.2969 51.9522,21.1179 51.9522,35.6479 C51.9522,50.1779 63.7732,61.9989 78.3032,61.9989 C92.8332,61.9989 104.6542,50.1779 104.6542,35.6479 C104.6542,21.1179 92.8332,9.2969 78.3032,9.2969 M78.3032,68.9979 C59.9132,68.9979 44.9522,54.0369 44.9522,35.6479 C44.9522,17.2579 59.9132,2.2969 78.3032,2.2969 C96.6932,2.2969 111.6542,17.2579 111.6542,35.6479 C111.6542,54.0369 96.6932,68.9979 78.3032,68.9979" id="Fill-154" fill="#F45944"></path>
                        <g id="Group-158" transform="translate(43.000000, 0.000000)" fill="#FFFFFF">
                            <path d="M35.3032,60.4986 C21.6002,60.4986 10.4522,49.3506 10.4522,35.6476 C10.4522,21.9446 21.6002,10.7966 35.3032,10.7966 C49.0062,10.7966 60.1542,21.9446 60.1542,35.6476 C60.1542,49.3506 49.0062,60.4986 35.3032,60.4986 M35.3032,0.7966 C16.0862,0.7966 0.4522,16.4306 0.4522,35.6476 C0.4522,54.8646 16.0862,70.4986 35.3032,70.4986 C54.5202,70.4986 70.1542,54.8646 70.1542,35.6476 C70.1542,16.4306 54.5202,0.7966 35.3032,0.7966 M35.3032,63.4986 C50.6602,63.4986 63.1542,51.0046 63.1542,35.6476 C63.1542,20.2906 50.6602,7.7966 35.3032,7.7966 C19.9462,7.7966 7.4522,20.2906 7.4522,35.6476 C7.4522,51.0046 19.9462,63.4986 35.3032,63.4986 M35.3032,3.7966 C52.8652,3.7966 67.1542,18.0846 67.1542,35.6476 C67.1542,53.2096 52.8652,67.4986 35.3032,67.4986 C17.7412,67.4986 3.4522,53.2096 3.4522,35.6476 C3.4522,18.0846 17.7412,3.7966 35.3032,3.7966" id="Fill-156"></path>
                        </g>
                        <path d="M0,68.0459 L57,68.0459" id="Stroke-159" stroke="#FFFFFF"></path>
                    </g>
                </g>
                <g id="Page-1" opacity="0.206804801" transform="translate(0.000000, 23.000000)" stroke="#4D5057">
                    <path d="M22,20.5005484 C22,26.2992114 17.0742153,31 10.9994255,31 C4.92463571,31 0,26.2992114 0,20.5005484 C0,14.7007886 4.92463571,10 10.9994255,10 C17.0742153,10 22,14.7007886 22,20.5005484 Z" id="Stroke-25"></path>
                    <path d="M10,15 L10,42" id="Stroke-27"></path>
                    <path d="M15,18 L10,23" id="Stroke-29"></path>
                    <path d="M15,23 L10,28" id="Stroke-31"></path>
                    <path d="M5,16 L10,21" id="Stroke-33"></path>
                    <path d="M5,20 L9.5,24.5" id="Stroke-35"></path>
                    <path d="M228,20.5005484 C228,26.2992114 223.075364,31 216.999425,31 C210.924636,31 206,26.2992114 206,20.5005484 C206,14.7007886 210.924636,10 216.999425,10 C223.075364,10 228,14.7007886 228,20.5005484 Z" id="Stroke-37"></path>
                    <path d="M218,15 L218,42" id="Stroke-39"></path>
                    <path d="M222,17 L218,20" id="Stroke-41"></path>
                    <path d="M223,23 L218,28" id="Stroke-43"></path>
                    <path d="M212,18 L218,24" id="Stroke-47"></path>
                    <path d="M29,25 C26.2498298,25 24,22.795687 24,20.1011561 L24,4.89884393 C24,2.20431303 26.2498298,0 29,0 C31.7501702,0 34,2.20431303 34,4.89884393 L34,20.1011561 C34,22.795687 31.7501702,25 29,25 Z" id="Stroke-49"></path>
                    <g id="Group-63" transform="translate(25.000000, 5.000000)">
                        <path d="M4.28742857,0.560606061 L4.28742857,36.6815758" id="Stroke-51"></path>
                        <path d="M7.28342857,2.94587273 L4.24457143,5.92829697" id="Stroke-53"></path>
                        <path d="M0.857714286,5.7572 L4.28742857,9.12195758" id="Stroke-55"></path>
                        <path d="M0.857714286,11.3801909 L4.28742857,14.7449485" id="Stroke-57"></path>
                        <path d="M7.28342857,13.7654576 L4.28685714,16.7041545" id="Stroke-59"></path>
                        <path d="M7.28342857,8.05759091 L4.24457143,11.0388939" id="Stroke-61"></path>
                    </g>
                    <path d="M249,33 C246.800118,33 245,31.3247596 245,29.2774881 L245,17.7225119 C245,15.6752404 246.800118,14 249,14 C251.199882,14 253,15.6752404 253,17.7225119 L253,29.2774881 C253,31.3247596 251.199882,33 249,33 Z" id="Stroke-64"></path>
                    <g id="Group-78" transform="translate(246.000000, 18.000000)">
                        <path d="M3.15528,0.0869318182 L3.15528,23.6767045" id="Stroke-66"></path>
                        <path d="M0.39084,1.12920455 L3.15564,3.74738636" id="Stroke-70"></path>
                        <path d="M0.39084,8.50318182 L3.15564,11.1213636" id="Stroke-72"></path>
                        <path d="M5.56932,4.91863636 L3.12012,7.23795455" id="Stroke-76"></path>
                    </g>
                    <path d="M237.859181,25 C235.199342,25 233.023409,22.795687 233.023409,20.1011561 C233.023409,19.0629169 232.970739,17.7712317 233.023409,15.9448644 C233.064009,14.5164518 233.600585,9.47421076 233.803584,8.52489996 C234.838332,3.7072032 236.525969,1.337261 237.859181,0 C240.030724,2.11427301 241.462692,4.18408181 242.377835,8.95064473 C242.580834,10.0122277 243,12.5733659 243,15.9593153 C243,18.0913739 242.694952,20.1011561 242.694952,20.1011561 C242.454645,23.2047577 240.51902,25 237.859181,25 Z" id="Stroke-79"></path>
                    <g id="Group-93" transform="translate(234.000000, 5.000000)">
                        <path d="M3.95142857,0.560606061 L3.95142857,36.6815758" id="Stroke-81"></path>
                        <path d="M0.521257143,8.38019091 L3.95097143,11.7449485" id="Stroke-87"></path>
                        <path d="M6.94697143,13.7654576 L3.95154286,16.7041545" id="Stroke-89"></path>
                        <path d="M6.94697143,5.05759091 L3.90811429,8.03889394" id="Stroke-91"></path>
                    </g>
                    <path d="M38.8872247,38 C36.7585903,38 35.0187959,36.1483817 35.0187959,33.8857092 C35.0187959,33.0123751 34.9765051,31.9278915 35.0187959,30.3948715 C35.050514,29.1941932 35.4804699,24.9587101 35.6425844,24.1615897 C36.4707783,20.1147668 37.820558,18.1244645 38.8872247,17 C40.6246696,18.776654 41.7712188,20.5158258 42.501909,24.5189196 C42.6651982,25.4097454 43,27.5624703 43,30.4061161 C43,32.1965136 42.7556535,33.8857092 42.7556535,33.8857092 C42.5641703,36.4919681 41.015859,38 38.8872247,38 Z" id="Stroke-94"></path>
                    <g id="Group-108" transform="translate(36.000000, 23.000000)">
                        <path d="M3.23028,0.00927647059 L3.23028,18.6829235" id="Stroke-96"></path>
                        <path d="M0.53844,2.88013529 L3.23004,5.38701765" id="Stroke-100"></path>
                        <path d="M0.53844,8.06907647 L3.23004,10.5759588" id="Stroke-102"></path>
                        <path d="M5.58108,5.59371176 L3.19668,7.81447647" id="Stroke-106"></path>
                    </g>
                </g>
                <g id="Group" transform="translate(2.000000, 63.000000)" stroke="#DBDBDD">
                    <path d="M61.4878565,1.5 L102.668092,1.5" id="Line-2" stroke-linecap="square"></path>
                    <path d="M136.487856,1.5 L144.562164,1.5" id="Line-2-Copy-6" stroke-linecap="square"></path>
                    <path d="M21.5,1.5 L53.6680923,1.5" id="Line-2-Copy-4" stroke-linecap="square"></path>
                    <path d="M0.5,1.5 L15.6680923,1.5" id="Line-2-Copy-5" stroke-linecap="square"></path>
                    <path d="M165.5,1.5 L201.5,1.5" id="Line-2-Copy" stroke-linecap="round" stroke-linejoin="round"></path>
                    <path d="M207.5,1.5 L243.5,1.5" id="Line-2-Copy-2" stroke-linecap="round" stroke-linejoin="round"></path>
                    <path d="M247.5,1.5 L254.5,1.5" id="Line-2-Copy-3" stroke-linecap="round" stroke-linejoin="round"></path>
                </g>
            </g>
        </g>
    </g>
</svg>