<svg xmlns="http://www.w3.org/2000/svg" viewBox="0 0 595.8 405.1"><defs><style>.cls-1{fill:#0e405b}.cls-2{fill:#30b57e}.cls-3{fill:#fff}</style></defs><title>oxygen</title><g id="Layer_2" data-name="Layer 2"><g id="Layer_3" data-name="Layer 3"><path class="cls-1" d="M45.74 271.47a43.74 43.74 0 0 1 17.58 3.59 46.25 46.25 0 0 1 14.56 9.83 47.66 47.66 0 0 1 9.92 14.55 45.42 45.42 0 0 1 .1 35.63 47.76 47.76 0 0 1-9.74 14.46 45.25 45.25 0 0 1-14.46 9.83 44.73 44.73 0 0 1-18 3.59 46.38 46.38 0 0 1-17.7-3.4A44.51 44.51 0 0 1 13.42 350a45.68 45.68 0 0 1-.28-64.64 47.09 47.09 0 0 1 14.55-9.83 49.32 49.32 0 0 1 18.05-4.06zm0 24.76a20.5 20.5 0 0 0-8.12 1.6 21.89 21.89 0 0 0-6.71 4.45 20.78 20.78 0 0 0-6.34 15.12 20.27 20.27 0 0 0 1.7 8.22 22.36 22.36 0 0 0 11.35 11.44 19.56 19.56 0 0 0 8.12 1.7 20.35 20.35 0 0 0 8.23-1.7 21.12 21.12 0 0 0 6.71-4.63 23 23 0 0 0 4.53-6.81 20.1 20.1 0 0 0 1.7-8.22 21.87 21.87 0 0 0-6.23-14.75 21.21 21.21 0 0 0-14.94-6.42zM170.5 275.25a11.18 11.18 0 0 1 8.41-3.5 12.51 12.51 0 0 1 8.6 3.68 11.56 11.56 0 0 1 3.41 8.51 12.21 12.21 0 0 1-3.41 8.7l-24.57 24.76 24.57 24.76a12.31 12.31 0 0 1 3.59 8.6 11.95 11.95 0 0 1-12.19 12.38 12 12 0 0 1-9-4L145.36 335l-24.57 24.76a13.94 13.94 0 0 1-8.51 3.4 10.93 10.93 0 0 1-8.88-3.4 12.48 12.48 0 0 1-3.69-8.41 11.35 11.35 0 0 1 3.31-8.79l25.14-25.14L103 292.26a10.15 10.15 0 0 1-3.21-8.32 14.65 14.65 0 0 1 3.59-8.51q4.16-4.15 8.88-3.78a14.26 14.26 0 0 1 8.51 3.78L145.36 300zM212.08 271.47a13.15 13.15 0 0 1 8.6 3.21 10.28 10.28 0 0 1 3.88 8.32v34.21a20.65 20.65 0 0 0 6.05 14.79 21.6 21.6 0 0 0 6.71 4.54 20.76 20.76 0 0 0 8.41 1.7 21.33 21.33 0 0 0 7.84-1.51 21.91 21.91 0 0 0 6.81-4.16 20.53 20.53 0 0 0 4.72-6.33 18.09 18.09 0 0 0 1.8-8v-34.68a12.11 12.11 0 0 1 12.29-12.09 12.83 12.83 0 0 1 8.69 3.3 10.5 10.5 0 0 1 3.78 8.23v97.15a10.77 10.77 0 0 1-3.78 8.32 12.61 12.61 0 0 1-8.69 3.4 12.39 12.39 0 0 1-8.51-3.4 11.39 11.39 0 0 1-3.78-8.88v-21.74a32.24 32.24 0 0 1-9.92 3.87 52.11 52.11 0 0 1-11.25 1.28 43.74 43.74 0 0 1-17.58-3.59 47.34 47.34 0 0 1-14.65-9.83 46 46 0 0 1-10-14.84 47.34 47.34 0 0 1-3.68-18.8v-32.38a12.09 12.09 0 0 1 12.28-12.09zM354.23 397.54h-6.05a13 13 0 0 0-8.32 4 12.6 12.6 0 0 1-9 3.59 12.26 12.26 0 0 1-9-3.78 11.94 11.94 0 0 1-3.86-8.25 11.13 11.13 0 0 1 2.93-8.41q5.67-7.19 16.63-10.4a40.6 40.6 0 0 1 10.59-1.7h14a6.77 6.77 0 0 0 4.53-2.45q4.16-6.24 2.84-11.53v-.19a39.75 39.75 0 0 1-8.6 3.4 49.94 49.94 0 0 1-12.76 1.32 48.64 48.64 0 0 1-18.43-3.4 42.12 42.12 0 0 1-23.91-23.91 48.68 48.68 0 0 1-3.41-18.43 42 42 0 0 1 3.78-17.58 48.1 48.1 0 0 1 10.12-14.56 49.47 49.47 0 0 1 14.55-9.92 41.78 41.78 0 0 1 17.3-3.69 44.28 44.28 0 0 1 17.77 3.6 46.46 46.46 0 0 1 14.55 9.82 45.32 45.32 0 0 1 13.23 32.33 45.81 45.81 0 0 1-5.48 22.68q5.47 7.37 5.48 24a30.22 30.22 0 0 1-2.36 12 34.1 34.1 0 0 1-6.81 11.06 32.51 32.51 0 0 1-10.11 7.27 34 34 0 0 1-12.66 3.12h-7.56zm-6.05-101.31a18.36 18.36 0 0 0-7.94 1.79 24.07 24.07 0 0 0-11.44 11.44 18.25 18.25 0 0 0-1.8 7.94 20.77 20.77 0 0 0 1.6 8 21.59 21.59 0 0 0 4.45 6.81 22.09 22.09 0 0 0 6.71 4.72 19.68 19.68 0 0 0 8.41 1.8 21.4 21.4 0 0 0 8.5-1.7 20 20 0 0 0 6.81-4.73 23 23 0 0 0 4.44-6.8 20.59 20.59 0 0 0 1.61-8.13 19.26 19.26 0 0 0-1.8-8.22 22.44 22.44 0 0 0-4.72-6.72 23 23 0 0 0-6.81-4.53 19.67 19.67 0 0 0-8.02-1.67zM449.12 271.65a41.77 41.77 0 0 1 17.39 3.78 49.84 49.84 0 0 1 24.76 24.67 40.94 40.94 0 0 1 3.78 17.3 9.24 9.24 0 0 1-3.69 7.75 13.75 13.75 0 0 1-9.17 2.64h-50.28q6.24 10.79 17.21 10.78a19.61 19.61 0 0 0 5.1-.57 23.4 23.4 0 0 0 3.68-1.32 33.58 33.58 0 0 1 3.22-1.32 11 11 0 0 1 3.68-.57 12.8 12.8 0 0 1 11.25 7.46A12.1 12.1 0 0 1 477 349a11.85 11.85 0 0 1-3.31 6.62 29.36 29.36 0 0 1-11.34 5.77 59.08 59.08 0 0 1-13.23 1.79 38.4 38.4 0 0 1-17.39-3.31A47.59 47.59 0 0 1 407.06 335a43.74 43.74 0 0 1-3.69-17.58 42 42 0 0 1 3.69-17.2 48.38 48.38 0 0 1 24.48-24.77 42.12 42.12 0 0 1 17.58-3.8zm17.2 35.16q-3.22-5.85-7.56-8.22a21.07 21.07 0 0 0-19.38 0q-4.25 2.37-7.47 8.22zM550.05 271.09a46.51 46.51 0 0 1 17.39 3.31 44.73 44.73 0 0 1 14.56 9.26 46.13 46.13 0 0 1 10 14.08 41.18 41.18 0 0 1 3.78 17.58v35a11.76 11.76 0 0 1-3.5 8.5 12.15 12.15 0 0 1-8.6 3.78 12.74 12.74 0 0 1-8.79-3.3 10.8 10.8 0 0 1-3.68-8.41v-34a21.25 21.25 0 0 0-1.61-8.22 19.82 19.82 0 0 0-4.54-6.71 23.07 23.07 0 0 0-6.8-4.54 20.79 20.79 0 0 0-8.41-1.7 20.09 20.09 0 0 0-7.94 1.61 22.44 22.44 0 0 0-6.62 4.25 20 20 0 0 0-4.54 6.43 19.17 19.17 0 0 0-1.7 7.94v34.4a11.65 11.65 0 0 1-3.78 8.6 12.08 12.08 0 0 1-8.69 3.68 12.61 12.61 0 0 1-8.7-3.4 10.77 10.77 0 0 1-3.78-8.31v-34a47.83 47.83 0 0 1 3.69-17.77 45.8 45.8 0 0 1 9.64-14.55 45.09 45.09 0 0 1 32.6-13.42z"/><path class="cls-2" d="M364.76 185.14A125.86 125.86 0 0 0 382 135.39a137.81 137.81 0 0 0-1.85-44.85 128.72 128.72 0 0 0-75.68 58.78q-14.42 24.28-17.75 50.08a130.48 130.48 0 0 0 1.72 44.47A136.94 136.94 0 0 0 330 223.51a125.6 125.6 0 0 0 34.76-38.37z"/><path class="cls-3" d="M287.62 247.11l62.83-105.76M287.62 247.11c2.5-4.48 5.07-8.92 7.59-13.38l7.71-13.31c5.15-8.86 10.39-17.67 15.58-26.51l15.83-26.37 8-13.13c2.71-4.35 5.38-8.73 8.12-13.06-2.5 4.48-5.06 8.91-7.59 13.37l-7.7 13.28-15.58 26.52c-5.29 8.78-10.51 17.6-15.84 26.36l-8 13.13c-2.74 4.39-5.38 8.76-8.12 13.1zM333.6 170.48l24.65-6.83"/><path class="cls-3" d="M333.6 170.48a116.12 116.12 0 0 1 12.16-4 114.55 114.55 0 0 1 12.49-2.81 130.73 130.73 0 0 1-24.65 6.83zM321.59 187.89l-6.84-24.66M321.59 187.89a129.59 129.59 0 0 1-6.84-24.66 115.34 115.34 0 0 1 4 12.16 117.7 117.7 0 0 1 2.84 12.5zM308.66 212.45l24.66-6.83M308.66 212.45a117.07 117.07 0 0 1 12.17-4 114.55 114.55 0 0 1 12.49-2.81 116.12 116.12 0 0 1-12.16 4 114.2 114.2 0 0 1-12.5 2.81zM298.65 226.5l-6.84-24.66M298.65 226.5a131.58 131.58 0 0 1-6.84-24.66 113.08 113.08 0 0 1 4 12.16 117.7 117.7 0 0 1 2.84 12.5z"/><path class="cls-2" d="M287.77 76.63a70 70 0 0 0-20.63-20.7 76.56 76.56 0 0 0-22.83-10 72.9 72.9 0 0 0 54.21 83 76 76 0 0 0-.06-25.66 69.54 69.54 0 0 0-10.69-26.64z"/><path class="cls-3" d="M299.94 130.18l-37.5-57.06M299.94 130.18l-4.83-7.04-4.76-7.08-9.45-14.22-9.31-14.31-4.6-7.18-4.55-7.23 4.83 7.04 4.77 7.08 9.44 14.22 9.31 14.31 4.61 7.18 4.54 7.23zM272.88 88.62l2.59-13.97"/><path class="cls-3" d="M272.88 88.62a66.34 66.34 0 0 1 .95-7.05 63.78 63.78 0 0 1 1.64-6.92 63.86 63.86 0 0 1-1 7 66.82 66.82 0 0 1-1.59 6.97zM278.65 98.84l-13.97-2.58M278.65 98.84a63.86 63.86 0 0 1-7-1 64.29 64.29 0 0 1-6.92-1.63 73.05 73.05 0 0 1 14 2.58zM287.76 111.26l2.59-13.97M287.76 111.26a69 69 0 0 1 .95-7.05 64.34 64.34 0 0 1 1.64-6.92 72.05 72.05 0 0 1-2.59 14zM292.34 119.67l-13.97-2.58M292.34 119.67a63.86 63.86 0 0 1-7-1 64.29 64.29 0 0 1-6.92-1.63 73.05 73.05 0 0 1 14 2.58z"/><path class="cls-2" d="M344.09 38a50.32 50.32 0 0 0 6.48-20 55 55 0 0 0-1.11-18 51.48 51.48 0 0 0-29.78 24.14 51.81 51.81 0 0 0-5.62 38 54.74 54.74 0 0 0 16.44-8.54A50.19 50.19 0 0 0 344.09 38z"/><path class="cls-3" d="M313.76 63.4L338 20.57M313.76 63.4q2.91-5.43 5.89-10.8l6-10.74 6.11-10.68q3.08-5.33 6.23-10.61c-1.94 3.61-3.9 7.22-5.89 10.8l-6 10.74-6.1 10.67a1017.9 1017.9 0 0 1-6.24 10.62zM331.51 32.37l9.8-2.94"/><path class="cls-3" d="M331.51 32.37a52.47 52.47 0 0 1 9.8-2.94 49.49 49.49 0 0 1-4.83 1.71 49.39 49.39 0 0 1-4.97 1.23zM326.85 39.43l-2.94-9.81M326.85 39.43a47 47 0 0 1-1.71-4.83 47 47 0 0 1-1.23-5 47 47 0 0 1 1.71 4.83 49.58 49.58 0 0 1 1.23 5zM321.88 49.36l9.81-2.94M321.88 49.36a52.27 52.27 0 0 1 9.81-2.94 47 47 0 0 1-4.83 1.71 47 47 0 0 1-4.98 1.23zM317.99 55.06l-2.93-9.8M318 55.06a46.92 46.92 0 0 1-1.7-4.83 44.52 44.52 0 0 1-1.23-5 46.1 46.1 0 0 1 1.7 4.83 44 44 0 0 1 1.23 5z"/></g></g></svg>